<svg width="71" height="70" viewBox="0 0 71 70" fill="none" xmlns="http://www.w3.org/2000/svg">
<path d="M24.992 68.39C28.4 69.405 31.8435 70 35.5 70C44.9152 70 53.9447 66.3125 60.6023 59.7487C67.2598 53.185 71 44.2826 71 35C71 30.4037 70.0818 25.8525 68.2977 21.6061C66.5137 17.3597 63.8988 13.5013 60.6023 10.2513C57.3058 7.00121 53.3923 4.42313 49.0853 2.66422C44.7782 0.905302 40.1619 0 35.5 0C30.8381 0 26.2218 0.905302 21.9147 2.66422C17.6077 4.42313 13.6942 7.00121 10.3977 10.2513C3.74017 16.815 0 25.7174 0 35C0 49.875 9.4785 62.65 22.862 67.69C22.5425 64.96 22.223 60.445 22.862 57.33L26.9445 40.04C26.9445 40.04 25.915 38.01 25.915 34.79C25.915 29.96 28.968 26.355 32.447 26.355C35.5 26.355 36.92 28.56 36.92 31.395C36.92 34.405 34.8965 38.71 33.867 42.84C33.2635 46.27 35.713 49.28 39.263 49.28C45.582 49.28 50.481 42.63 50.481 33.25C50.481 24.85 44.375 19.11 35.6065 19.11C25.5955 19.11 19.7025 26.46 19.7025 34.195C19.7025 37.205 20.6965 40.25 22.3295 42.245C22.649 42.455 22.649 42.735 22.5425 43.26L21.513 47.075C21.513 47.67 21.1225 47.88 20.519 47.46C15.975 45.5 13.348 39.13 13.348 33.985C13.348 22.925 21.3 12.88 36.636 12.88C48.848 12.88 58.362 21.525 58.362 33.005C58.362 45.045 50.8005 54.705 39.973 54.705C36.5295 54.705 33.157 52.885 31.95 50.75L29.5715 59.045C28.755 62.055 26.5185 66.08 24.992 68.495V68.39Z" fill="#EE0040"/>
</svg>
