<svg width="100" height="70" viewBox="0 0 100 70" fill="none" xmlns="http://www.w3.org/2000/svg">
<path d="M40 50L65.95 35L40 20V50ZM97.8 10.85C98.45 13.2 98.9 16.35 99.2 20.35C99.55 24.35 99.7 27.8 99.7 30.8L100 35C100 45.95 99.2 54 97.8 59.15C96.55 63.65 93.65 66.55 89.15 67.8C86.8 68.45 82.5 68.9 75.9 69.2C69.4 69.55 63.45 69.7 57.95 69.7L50 70C29.05 70 16 69.2 10.85 67.8C6.35 66.55 3.45 63.65 2.2 59.15C1.55 56.8 1.1 53.65 0.8 49.65C0.45 45.65 0.3 42.2 0.3 39.2L0 35C0 24.05 0.8 16 2.2 10.85C3.45 6.35 6.35 3.45 10.85 2.2C13.2 1.55 17.5 1.1 24.1 0.799999C30.6 0.449999 36.55 0.3 42.05 0.3L50 0C70.95 0 84 0.8 89.15 2.2C93.65 3.45 96.55 6.35 97.8 10.85Z" fill="#FF0303"/>
</svg>
