<svg width="161" height="159" viewBox="0 0 161 159" fill="none" xmlns="http://www.w3.org/2000/svg">
<path d="M56.4227 154.919C64.1167 157.218 71.8909 158.566 80.1459 158.566C101.402 158.566 121.787 150.213 136.818 135.345C151.848 120.476 160.292 100.31 160.292 79.2831C160.292 68.8715 158.219 58.5618 154.191 48.9427C150.163 39.3237 144.26 30.5836 136.818 23.2215C129.375 15.8594 120.54 10.0194 110.816 6.03506C101.093 2.05072 90.6708 0 80.1459 0C69.621 0 59.1991 2.05072 49.4754 6.03506C39.7516 10.0194 30.9164 15.8594 23.4742 23.2215C8.44392 38.0899 0 58.2559 0 79.2831C0 112.978 21.399 141.917 51.614 153.333C50.8927 147.149 50.1713 136.922 51.614 129.866L60.8307 90.6998C60.8307 90.6998 58.5065 86.1014 58.5065 78.8074C58.5065 67.8663 65.3991 59.7001 73.2534 59.7001C80.1459 59.7001 83.3517 64.695 83.3517 71.1169C83.3517 77.9352 78.7834 87.687 76.4592 97.0424C75.0967 104.812 80.6268 111.631 88.6414 111.631C102.907 111.631 113.967 96.5668 113.967 75.3189C113.967 56.291 100.182 43.2885 80.3863 43.2885C57.7852 43.2885 44.481 59.938 44.481 77.4595C44.481 84.2779 46.7251 91.1755 50.4118 95.6946C51.1331 96.1703 51.1331 96.8046 50.8927 97.9939L48.5684 106.636C48.5684 107.984 47.6868 108.459 46.3243 107.508C36.0657 103.068 30.1349 88.6385 30.1349 76.9838C30.1349 51.9304 48.0875 29.1762 82.7106 29.1762C110.281 29.1762 131.76 48.7591 131.76 74.7639C131.76 102.037 114.689 123.919 90.2443 123.919C82.4701 123.919 74.8563 119.797 72.1313 114.96L66.7615 133.751C64.9182 140.569 59.869 149.686 56.4227 155.157V154.919Z" fill="#A0C1DF"/>
</svg>
