<svg width="160" height="160" viewBox="0 0 160 160" fill="none" xmlns="http://www.w3.org/2000/svg">
<path d="M79.5833 0C35.6533 0 0 35.6533 0 79.5833C0 123.513 35.6533 159.167 79.5833 159.167C123.513 159.167 159.167 123.513 159.167 79.5833C159.167 35.6533 123.513 0 79.5833 0ZM116.51 54.1167C115.316 66.6908 110.143 97.2508 107.517 111.337C106.403 117.306 104.175 119.295 102.105 119.534C97.4896 119.932 93.9879 116.51 89.5312 113.565C82.5279 108.95 78.5488 106.085 71.7842 101.628C63.9054 96.455 68.9987 93.59 73.535 88.9742C74.7287 87.7804 95.1021 69.2375 95.5 67.5662C95.5553 67.3131 95.5479 67.0503 95.4786 66.8007C95.4092 66.551 95.28 66.3221 95.1021 66.1338C94.6246 65.7358 93.9879 65.895 93.4308 65.9746C92.7146 66.1337 81.5729 73.535 59.8467 88.1783C56.6633 90.3271 53.7983 91.4412 51.2517 91.3617C48.3867 91.2821 42.975 89.77 38.9162 88.4171C33.9025 86.8254 30.0029 85.95 30.3212 83.1646C30.4804 81.7321 32.47 80.2996 36.2104 78.7875C59.4487 68.6804 74.8879 61.9954 82.6075 58.8121C104.732 49.5804 109.268 47.9887 112.292 47.9887C112.929 47.9887 114.441 48.1479 115.396 48.9437C116.192 49.5804 116.43 50.4558 116.51 51.0925C116.43 51.57 116.59 53.0025 116.51 54.1167Z" fill="#A0C1DF"/>
</svg>
