<svg width="153" height="153" viewBox="0 0 153 153" fill="none" xmlns="http://www.w3.org/2000/svg">
<path d="M76.0757 0C118.092 0 152.151 34.059 152.151 76.0755C152.151 118.092 118.092 152.151 76.0757 152.151C62.6312 152.174 49.4232 148.616 37.8097 141.843L0.0305478 152.151L10.316 114.357C3.53731 102.739 -0.0234436 89.5258 0.000116157 76.0755C0.000116157 34.059 34.0591 0 76.0757 0ZM50.1491 40.32L48.6276 40.3809C47.6439 40.4487 46.6827 40.7071 45.7976 41.1416C44.9727 41.6096 44.2195 42.1938 43.561 42.8762C42.6481 43.7358 42.1307 44.4814 41.5754 45.2041C38.7615 48.8626 37.2465 53.3542 37.2695 57.9696C37.2847 61.6973 38.2585 65.3261 39.78 68.719C42.8915 75.581 48.0114 82.8463 54.7669 89.5789C56.3949 91.1993 57.9925 92.8274 59.7118 94.3413C68.1062 101.731 78.109 107.061 88.9248 109.906L93.2459 110.568C94.6533 110.644 96.0607 110.538 97.4757 110.469C99.6909 110.352 101.854 109.753 103.813 108.712C104.808 108.197 105.78 107.639 106.726 107.038C106.726 107.038 107.049 106.82 107.677 106.354C108.704 105.593 109.336 105.053 110.188 104.163C110.827 103.503 111.359 102.737 111.786 101.865C112.379 100.625 112.972 98.2592 113.216 96.2888C113.398 94.7825 113.345 93.9609 113.322 93.4512C113.292 92.6372 112.615 91.7927 111.877 91.4352L107.449 89.4496C107.449 89.4496 100.831 86.5664 96.7834 84.7253C96.3598 84.5409 95.906 84.4352 95.4445 84.4134C94.9239 84.359 94.3977 84.417 93.9016 84.5837C93.4054 84.7504 92.9509 85.0218 92.5688 85.3796C92.5308 85.3644 92.0211 85.798 86.5208 92.4622C86.2051 92.8864 85.7703 93.207 85.2717 93.3831C84.7731 93.5593 84.2333 93.583 83.7212 93.4512C83.2254 93.319 82.7398 93.1512 82.2682 92.9491C81.3249 92.5535 80.9977 92.4013 80.3511 92.1275C75.9834 90.2249 71.9405 87.6503 68.3692 84.4971C67.4107 83.6603 66.5206 82.7474 65.6077 81.8649C62.6149 78.9984 60.0066 75.7559 57.8479 72.2185L57.3991 71.4958C57.0816 71.0074 56.8212 70.4841 56.6231 69.9362C56.3341 68.8179 57.0872 67.9202 57.0872 67.9202C57.0872 67.9202 58.9358 65.8966 59.7955 64.8011C60.6323 63.7361 61.3398 62.7015 61.7963 61.9635C62.694 60.5181 62.9754 59.0346 62.5038 57.8859C60.3737 52.6823 58.1725 47.5066 55.9004 42.3589C55.4516 41.3394 54.1203 40.6091 52.9107 40.4646C52.4998 40.4139 52.089 40.3733 51.6782 40.3429C50.6568 40.2843 49.6325 40.2944 48.6124 40.3733L50.1491 40.32Z" fill="#A0C1DF"/>
</svg>
