<svg width="60" height="50" viewBox="0 0 60 50" fill="none" xmlns="http://www.w3.org/2000/svg">
<path d="M23.6667 33.5327L39.0204 24.7532L23.6667 15.9738V33.5327ZM57.865 10.6183C58.2496 11.9937 58.5158 13.8374 58.6933 16.1786C58.9004 18.5198 58.9892 20.5391 58.9892 22.295L59.1667 24.7532C59.1667 31.1622 58.6933 35.8738 57.865 38.8881C57.1254 41.522 55.4096 43.2193 52.7471 43.9509C51.3567 44.3314 48.8125 44.5948 44.9075 44.7703C41.0617 44.9752 37.5413 45.063 34.2871 45.063L29.5833 45.2386C17.1879 45.2386 9.46667 44.7703 6.41958 43.9509C3.75708 43.2193 2.04125 41.522 1.30167 38.8881C0.917084 37.5127 0.650834 35.669 0.473334 33.3278C0.26625 30.9866 0.1775 28.9673 0.1775 27.2115L0 24.7532C0 18.3442 0.473334 13.6326 1.30167 10.6183C2.04125 7.98446 3.75708 6.2871 6.41958 5.55548C7.81 5.17503 10.3542 4.91165 14.2592 4.73606C18.105 4.53121 21.6254 4.44341 24.8796 4.44341L29.5833 4.26782C41.9788 4.26782 49.7 4.73606 52.7471 5.55548C55.4096 6.2871 57.1254 7.98446 57.865 10.6183Z" fill="#A0C1DF"/>
</svg>
